# xmcd
#
# Track frame offsets:
#	150
#	9780
#	19074
#	29927
#	41681
#	52519
#	65550
#	75001
#	83696
#	94434
#	111675
#	124756
#	133716
#	144562
#	154439
#
# Disc length: 2256 seconds
#
# Revision: 3
# Processed by: cddbd v1.5.2PL0 Copyright (c) Steve Scherf et al.
# Submitted via: EZCDAudioConverter 2.1.7.1
#
DISCID=c408ce0f
DTITLE=V/A - My Generation
DYEAR=2015
DGENRE=
TTITLE0=Pretty Things - Don't Bring Me Down
TTITLE1=Bo Street Runners - Bo Street Runner
TTITLE2=Larry's Rebels - It's Not True
TTITLE3=Mike Cotton Sound - Make Up Your Mind
TTITLE4=Stormsville Shakers - Number One
TTITLE5=The Artwoods - Can You Hear Me
TTITLE6=In Crowd - Stop! Wait A Minute
TTITLE7=John's Children - But She's Mine
TTITLE8=Fleur De Lys - Wait For Me
TTITLE9=Golden Dawn - My Time
TTITLE10=Sons Of Adam - Mr. You're A Better Man Than I
TTITLE11=Andy Ellison - Cornflake Zoo
TTITLE12=Katch 22 - Major Catastrophe
TTITLE13=Rockin' Vickers - It's Alright
TTITLE14=The Syndicats - Crawdaddy Simone
EXTD=
EXTT0=
EXTT1=
EXTT2=
EXTT3=
EXTT4=
EXTT5=
EXTT6=
EXTT7=
EXTT8=
EXTT9=
EXTT10=
EXTT11=
EXTT12=
EXTT13=
EXTT14=
PLAYORDER=
